<?xml version="1.0" standalone="no"?>
<!DOCTYPE svg PUBLIC "-//W3C//DTD SVG 1.1//EN" "http://www.w3.org/Graphics/SVG/1.1/DTD/svg11.dtd">
<svg version="1.1" xmlns="http://www.w3.org/2000/svg" viewBox="0 0 524.6364027544855 321.64671716690066" width="524.6364027544855" height="321.64671716690066"><!-- svg-source:excalidraw --><metadata></metadata><defs><style class="style-fonts">
      </style></defs><g stroke-linecap="round"><g transform="translate(77.59312264307397 10.01070863306522) rotate(0 0 149.60000610351562)"><path d="M1.14 1.09 C1.14 50.7, -0.26 249.09, -0.46 298.66 M0.28 0.62 C0.12 50.9, -1.47 250.1, -1.65 299.92" stroke="#1e1e1e" stroke-width="1" fill="none"></path></g></g><mask></mask><g stroke-linecap="round"><g transform="translate(77.59312264307397 11.610714736580846) rotate(0 118 0)"><path d="M-0.08 0.06 C39.21 0.07, 196.59 0.61, 236.14 0.63 M-1.58 -0.96 C37.53 -1.34, 195.49 -1.59, 235.27 -1.16" stroke="#1e1e1e" stroke-width="1" fill="none"></path></g></g><mask></mask><g stroke-linecap="round"><g transform="translate(10.3931409536209 310.01076966822154) rotate(0 251.59999084472653 -2.842170943040401e-14)"><path d="M0.7 0.55 C84.34 0.64, 418.2 0.46, 502.11 0.46 M-0.39 -0.21 C83.59 -0.48, 420.2 -1.21, 504.24 -1.43" stroke="#1e1e1e" stroke-width="1" fill="none"></path></g></g><mask></mask><g stroke-linecap="round"><g transform="translate(78.39314095362084 259.61071473658086) rotate(0 25.599990844726562 25.599990844726562)"><path d="M-0.13 -0.9 C8.6 7.74, 43.76 43.49, 52.24 52.04 M-1.66 1.24 C7.02 9.54, 43.27 42.02, 51.84 50.35" stroke="#1e1e1e" stroke-width="1" fill="none"></path></g></g><mask></mask><g stroke-linecap="round"><g transform="translate(81.59312264307397 57.21073609888553) rotate(0 23 -22.999999999999986)"><path d="M0.42 -0.79 C8.04 -8.46, 37.93 -39.51, 45.46 -47.18 M-0.82 1.42 C6.62 -6.05, 36.66 -38.37, 44.24 -46.27" stroke="#1e1e1e" stroke-width="1" fill="none"></path></g></g><mask></mask><g stroke-linecap="round"><g transform="translate(75.36284227064567 262.58041605360575) rotate(0 -23.800003051757812 23.800003051757784)"><path d="M0.43 0.69 C-7.53 8.7, -39.3 39.42, -47.39 47.38 M-0.8 0.01 C-8.94 8.26, -40.17 41.04, -48.23 48.8" stroke="#1e1e1e" stroke-width="1" fill="none"></path></g></g><mask></mask><g stroke-linecap="round"><g transform="translate(307.99314705713647 10.810711684823033) rotate(0 0 28)"><path d="M0.86 -0.81 C0.99 8.44, 0.74 45.99, 0.54 55.5 M-0.15 1.38 C-0.1 10.79, 0.07 47.39, -0.13 56.77" stroke="#1e1e1e" stroke-width="1" fill="none"></path></g></g><mask></mask></svg>