<?xml version="1.0" standalone="no"?>
<!DOCTYPE svg PUBLIC "-//W3C//DTD SVG 1.1//EN" "http://www.w3.org/Graphics/SVG/1.1/DTD/svg11.dtd">
<svg version="1.1" xmlns="http://www.w3.org/2000/svg" viewBox="0 0 524.6364027544855 321.64671716690066" width="524.6364027544855" height="321.64671716690066"><!-- svg-source:excalidraw --><metadata></metadata><defs><style class="style-fonts">
      </style></defs><g stroke-linecap="round"><g transform="translate(77.59312264307397 10.01070863306522) rotate(0 0 149.60000610351562)"><path d="M1.14 1.09 C1.14 50.7, -0.26 249.09, -0.46 298.66 M0.28 0.62 C0.12 50.9, -1.47 250.1, -1.65 299.92" stroke="#1e1e1e" stroke-width="1" fill="none"></path></g></g><mask></mask><g stroke-linecap="round"><g transform="translate(77.59312264307397 11.610714736580846) rotate(0 118 0)"><path d="M-0.08 0.06 C39.21 0.07, 196.59 0.61, 236.14 0.63 M-1.58 -0.96 C37.53 -1.34, 195.49 -1.59, 235.27 -1.16" stroke="#1e1e1e" stroke-width="1" fill="none"></path></g></g><mask></mask><g stroke-linecap="round"><g transform="translate(10.3931409536209 310.01076966822154) rotate(0 251.59999084472653 -2.842170943040401e-14)"><path d="M0.7 0.55 C84.34 0.64, 418.2 0.46, 502.11 0.46 M-0.39 -0.21 C83.59 -0.48, 420.2 -1.21, 504.24 -1.43" stroke="#1e1e1e" stroke-width="1" fill="none"></path></g></g><mask></mask><g stroke-linecap="round"><g transform="translate(78.39314095362084 259.61071473658086) rotate(0 25.599990844726562 25.599990844726562)"><path d="M-0.13 -0.9 C8.6 7.74, 43.76 43.49, 52.24 52.04 M-1.66 1.24 C7.02 9.54, 43.27 42.02, 51.84 50.35" stroke="#1e1e1e" stroke-width="1" fill="none"></path></g></g><mask></mask><g stroke-linecap="round"><g transform="translate(81.59312264307397 57.21073609888553) rotate(0 23 -22.999999999999986)"><path d="M0.42 -0.79 C8.04 -8.46, 37.93 -39.51, 45.46 -47.18 M-0.82 1.42 C6.62 -6.05, 36.66 -38.37, 44.24 -46.27" stroke="#1e1e1e" stroke-width="1" fill="none"></path></g></g><mask></mask><g stroke-linecap="round"><g transform="translate(75.36284227064567 262.58041605360575) rotate(0 -23.800003051757812 23.800003051757784)"><path d="M0.43 0.69 C-7.53 8.7, -39.3 39.42, -47.39 47.38 M-0.8 0.01 C-8.94 8.26, -40.17 41.04, -48.23 48.8" stroke="#1e1e1e" stroke-width="1" fill="none"></path></g></g><mask></mask><g stroke-linecap="round"><g transform="translate(307.99314705713647 10.810711684823033) rotate(0 0 28)"><path d="M0.86 -0.81 C0.99 8.44, 0.74 45.99, 0.54 55.5 M-0.15 1.38 C-0.1 10.79, 0.07 47.39, -0.13 56.77" stroke="#1e1e1e" stroke-width="1" fill="none"></path></g></g><mask></mask><g stroke-linecap="round" transform="translate(278.3931104360427 67.61069947779178) rotate(0 29.600006103515625 28.800010681152344)"><path d="M36.67 1.63 C42.74 2.91, 50.13 7.64, 53.74 12.42 C57.35 17.19, 58.7 24.27, 58.34 30.27 C57.98 36.27, 55.96 43.9, 51.6 48.42 C47.24 52.94, 38.68 56.68, 32.18 57.42 C25.69 58.15, 17.73 56.26, 12.65 52.83 C7.57 49.4, 3.45 42.83, 1.71 36.83 C-0.04 30.83, -0.31 22.34, 2.2 16.82 C4.7 11.31, 10.18 6, 16.75 3.73 C23.32 1.46, 36.57 2.99, 41.61 3.21 C46.65 3.43, 47.12 4.6, 46.99 5.05 M31.53 -0.21 C37.63 -0.68, 44.31 2.2, 48.85 6.19 C53.39 10.18, 57.63 17.59, 58.79 23.73 C59.95 29.86, 58.92 37.36, 55.82 43 C52.72 48.63, 46.22 55.3, 40.18 57.55 C34.15 59.79, 25.9 58.99, 19.6 56.47 C13.31 53.96, 5.39 48.04, 2.41 42.45 C-0.57 36.87, 0.33 29.25, 1.74 22.97 C3.14 16.69, 5.77 8.77, 10.84 4.78 C15.9 0.8, 28.87 -0.02, 32.12 -0.93 C35.37 -1.85, 30.35 -1.1, 30.31 -0.71" stroke="#1e1e1e" stroke-width="1" fill="none"></path></g><g stroke-linecap="round"><g transform="translate(309.59312264307397 126.01070863306522) rotate(0 0 40.80000305175781)"><path d="M0.99 0.84 C1.11 14.25, 0.3 67.29, 0.14 80.6 M0.05 0.23 C0.08 13.75, -0.6 68.05, -0.73 81.61" stroke="#1e1e1e" stroke-width="1" fill="none"></path></g></g><mask></mask><g stroke-linecap="round"><g transform="translate(309.59312264307397 138.81069642603399) rotate(0 -14 10.800003051757812)"><path d="M0.62 0.27 C-3.93 3.91, -23.06 19.14, -27.95 22.66 M-0.51 -0.64 C-5.17 2.63, -24.58 17.22, -28.88 21.09" stroke="#1e1e1e" stroke-width="1" fill="none"></path></g></g><mask></mask><g stroke-linecap="round"><g transform="translate(345.99596009732244 160.16655459743424) rotate(0 -17.63782495939421 -10.183202988225787)"><path d="M-1.14 -1.07 C-7.08 -4.54, -28.68 -18.24, -34.5 -21.49 M0.46 0.98 C-5.67 -2.32, -29.37 -17.16, -35.04 -20.55" stroke="#1e1e1e" stroke-width="1" fill="none"></path></g></g><mask></mask></svg>